<?xml version="1.0" encoding="UTF-8"?>
<svg width="841px" height="448px" viewBox="0 0 841 448" version="1.1" xmlns="http://www.w3.org/2000/svg" xmlns:xlink="http://www.w3.org/1999/xlink" style="background: #FFFFFF;">
    <!-- Generator: Sketch 45.2 (43514) - http://www.bohemiancoding.com/sketch -->
    <title>logo</title>
    <desc>Created with Sketch.</desc>
    <defs></defs>
    <g id="Page-1" stroke="none" stroke-width="1" fill="none" fill-rule="evenodd">
        <g id="Black-Bg" transform="translate(421.000000, 224.000000)" fill-rule="nonzero">
            <polygon id="Container" fill="#000000" transform="translate(209.914063, 111.539870) scale(-1, 1) rotate(-180.000000) translate(-209.914063, -111.539870) " points="0.078 222.62962 419.750125 222.62962 419.750125 0.45012 0.078 0.45012"></polygon>
            <g id="Logo" transform="translate(86.000000, 82.000000)" fill="#FFFFFF">
                <path d="M4.46075,37.444495 L17.523875,37.444495 L0.090375,7.256245 L30.9575,7.256245 L40.486625,23.756745 L40.5255,23.83862 L27.4625,23.83862 L44.858,54.02862 L13.989375,54.02862 L4.46075,37.444495 L4.46075,37.444495 Z M221.72175,27.385745 L234.731,40.39362 L223.7875,51.33862 L208.711125,36.26287 L208.711125,53.811495 L192.127375,53.811495 L192.127375,27.385745 L192.127375,0.96012 L208.711125,0.96012 L208.711125,18.50987 L223.7875,3.432745 L234.731,14.37762 L221.72175,27.385745 Z M189.606625,53.810745 L173.022875,53.810745 L173.022875,33.27012 L139.76725,59.538495 L139.76725,7.46387 L156.351,7.46387 L156.351,26.80187 L189.606625,0.58462 L189.606625,53.810745 Z M137.348875,30.63187 C137.348875,37.105745 135.01275,42.56787 130.413625,47.16662 C125.81475,51.765495 120.34,54.029995 113.842625,54.029995 C107.346,54.029995 101.8705,51.765495 97.271625,47.16662 C92.67175,42.56787 90.409625,37.105745 90.409625,30.63187 C90.409625,24.15962 92.67175,18.69687 97.271625,14.097745 C101.8705,9.49887 107.346,7.23537 113.842625,7.23537 C120.34,7.23537 125.81475,9.49887 130.413625,14.097745 C135.01275,18.69687 137.348875,24.15962 137.348875,30.63187 Z M64.750125,54.102745 C58.277125,54.102745 52.815125,51.766245 48.214875,47.16662 C43.617125,42.56787 41.353625,37.092995 41.353625,30.595745 C41.353625,24.099745 43.617125,18.62362 48.214875,14.02437 C52.815125,9.425495 58.277125,7.162745 64.750125,7.162745 C71.222625,7.162745 76.686125,9.425495 81.284875,14.02437 C85.88375,18.62362 88.146875,24.099745 88.146875,30.595745 C88.146875,37.092995 85.88375,42.56787 81.284875,47.16662 C76.686125,51.766245 71.222625,54.102745 64.750125,54.102745 L64.750125,54.102745 Z" id="path274" transform="translate(117.410688, 30.061557) scale(-1, 1) rotate(-180.000000) translate(-117.410688, -30.061557) "></path>
                <polygon id="path276" transform="translate(241.234063, 32.737495) scale(-1, 1) rotate(-180.000000) translate(-241.234063, -32.737495) " points="234.729625 45.744745 234.729625 19.730245 247.7385 32.73762"></polygon>
            </g>
        </g>
        <g id="White-Bg" transform="translate(1.000000, 224.000000)" fill-rule="nonzero">
            <polygon id="Container" stroke="#2196F3" fill="#FFFFFF" transform="translate(210.241750, 111.539870) scale(-1, 1) rotate(-180.000000) translate(-210.241750, -111.539870) " points="0.4055 222.62962 420.078 222.62962 420.078 0.45012 0.4055 0.45012"></polygon>
            <g id="Logo" transform="translate(210.500000, 114.259870) scale(-1, 1) rotate(-180.000000) translate(-210.500000, -114.259870) translate(86.000000, 84.259870)" fill="#2196F3">
                <path d="M4.78825,37.58125 L17.851375,37.58125 L0.417875,7.393 L31.285125,7.393 L40.814125,23.8935 L40.853125,23.975375 L27.79,23.975375 L45.185875,54.165375 L14.31725,54.165375 L4.78825,37.58125 L4.78825,37.58125 Z M222.04925,27.5225 L235.058875,40.530375 L224.115,51.475375 L209.038625,36.399625 L209.038625,53.94825 L192.454875,53.94825 L192.454875,27.5225 L192.454875,1.096875 L209.038625,1.096875 L209.038625,18.646625 L224.115,3.5695 L235.058875,14.514375 L222.04925,27.5225 Z M189.9345,53.9475 L173.350375,53.9475 L173.350375,33.406875 L140.09475,59.67525 L140.09475,7.600625 L156.6785,7.600625 L156.6785,26.938625 L189.9345,0.721375 L189.9345,53.9475 L189.9345,53.9475 Z M137.676375,30.768625 C137.676375,37.2425 135.340375,42.704625 130.7415,47.303375 C126.14225,51.90225 120.6675,54.16675 114.170125,54.16675 C107.6735,54.16675 102.198,51.90225 97.599125,47.303375 C92.999625,42.704625 90.737125,37.2425 90.737125,30.768625 C90.737125,24.296375 92.999625,18.833625 97.599125,14.2345 C102.198,9.635625 107.6735,7.372125 114.170125,7.372125 C120.6675,7.372125 126.14225,9.635625 130.7415,14.2345 C135.340375,18.833625 137.676375,24.296375 137.676375,30.768625 Z M65.078,54.2395 C58.604625,54.2395 53.142625,51.903 48.542375,47.303375 C43.944625,42.704625 41.681125,37.22975 41.681125,30.7325 C41.681125,24.2365 43.944625,18.760375 48.542375,14.161125 C53.142625,9.56225 58.604625,7.2995 65.078,7.2995 C71.550125,7.2995 77.013625,9.56225 81.6125,14.161125 C86.211625,18.760375 88.474375,24.2365 88.474375,30.7325 C88.474375,37.22975 86.211625,42.704625 81.6125,47.303375 C77.013625,51.903 71.550125,54.2395 65.078,54.2395 L65.078,54.2395 Z" id="path266"></path>
                <polygon id="path268" points="235.0575 40.529625 235.0575 14.515125 248.066 27.5225"></polygon>
            </g>
        </g>
        <g id="Secondary" transform="translate(421.000000, 0.000000)" fill-rule="nonzero">
            <polygon id="Container" fill="#F50057" transform="translate(209.914063, 111.539870) scale(-1, 1) rotate(-180.000000) translate(-209.914063, -111.539870) " points="0.078 222.62962 419.750125 222.62962 419.750125 0.45012 0.078 0.45012"></polygon>
            <g id="Logo" transform="translate(86.000000, 82.000000)" fill="#FFFFFF">
                <path d="M4.46075,37.444495 L17.523875,37.444495 L0.090375,7.256245 L30.9575,7.256245 L40.486625,23.756745 L40.5255,23.83862 L27.4625,23.83862 L44.858,54.02862 L13.989375,54.02862 L4.46075,37.444495 L4.46075,37.444495 Z M221.72175,27.385745 L234.731,40.39362 L223.7875,51.33862 L208.711125,36.26287 L208.711125,53.811495 L192.127375,53.811495 L192.127375,27.385745 L192.127375,0.96012 L208.711125,0.96012 L208.711125,18.50987 L223.7875,3.432745 L234.731,14.37762 L221.72175,27.385745 Z M189.606625,53.810745 L173.022875,53.810745 L173.022875,33.27012 L139.76725,59.538495 L139.76725,7.46387 L156.351,7.46387 L156.351,26.80187 L189.606625,0.58462 L189.606625,53.810745 Z M137.348875,30.63187 C137.348875,37.105745 135.01275,42.56787 130.413625,47.16662 C125.81475,51.765495 120.34,54.029995 113.842625,54.029995 C107.346,54.029995 101.8705,51.765495 97.271625,47.16662 C92.67175,42.56787 90.409625,37.105745 90.409625,30.63187 C90.409625,24.15962 92.67175,18.69687 97.271625,14.097745 C101.8705,9.49887 107.346,7.23537 113.842625,7.23537 C120.34,7.23537 125.81475,9.49887 130.413625,14.097745 C135.01275,18.69687 137.348875,24.15962 137.348875,30.63187 Z M64.750125,54.102745 C58.277125,54.102745 52.815125,51.766245 48.214875,47.16662 C43.617125,42.56787 41.353625,37.092995 41.353625,30.595745 C41.353625,24.099745 43.617125,18.62362 48.214875,14.02437 C52.815125,9.425495 58.277125,7.162745 64.750125,7.162745 C71.222625,7.162745 76.686125,9.425495 81.284875,14.02437 C85.88375,18.62362 88.146875,24.099745 88.146875,30.595745 C88.146875,37.092995 85.88375,42.56787 81.284875,47.16662 C76.686125,51.766245 71.222625,54.102745 64.750125,54.102745 L64.750125,54.102745 Z" id="path274" transform="translate(117.410688, 30.061557) scale(-1, 1) rotate(-180.000000) translate(-117.410688, -30.061557) "></path>
                <polygon id="path276" transform="translate(241.234063, 32.737495) scale(-1, 1) rotate(-180.000000) translate(-241.234063, -32.737495) " points="234.729625 45.744745 234.729625 19.730245 247.7385 32.73762"></polygon>
            </g>
        </g>
        <g id="Primary" transform="translate(1.000000, 0.000000)" fill-rule="nonzero">
            <polygon id="Container" fill="#2196F3" transform="translate(210.241750, 111.539870) scale(-1, 1) rotate(-180.000000) translate(-210.241750, -111.539870) " points="0.4055 222.62962 420.078 222.62962 420.078 0.45012 0.4055 0.45012"></polygon>
            <g id="Logo" transform="translate(210.500000, 114.259870) scale(-1, 1) rotate(-180.000000) translate(-210.500000, -114.259870) translate(86.000000, 84.259870)" fill="#FFFFFF">
                <path d="M4.78825,37.58125 L17.851375,37.58125 L0.417875,7.393 L31.285125,7.393 L40.814125,23.8935 L40.853125,23.975375 L27.79,23.975375 L45.185875,54.165375 L14.31725,54.165375 L4.78825,37.58125 L4.78825,37.58125 Z M222.04925,27.5225 L235.058875,40.530375 L224.115,51.475375 L209.038625,36.399625 L209.038625,53.94825 L192.454875,53.94825 L192.454875,27.5225 L192.454875,1.096875 L209.038625,1.096875 L209.038625,18.646625 L224.115,3.5695 L235.058875,14.514375 L222.04925,27.5225 Z M189.9345,53.9475 L173.350375,53.9475 L173.350375,33.406875 L140.09475,59.67525 L140.09475,7.600625 L156.6785,7.600625 L156.6785,26.938625 L189.9345,0.721375 L189.9345,53.9475 L189.9345,53.9475 Z M137.676375,30.768625 C137.676375,37.2425 135.340375,42.704625 130.7415,47.303375 C126.14225,51.90225 120.6675,54.16675 114.170125,54.16675 C107.6735,54.16675 102.198,51.90225 97.599125,47.303375 C92.999625,42.704625 90.737125,37.2425 90.737125,30.768625 C90.737125,24.296375 92.999625,18.833625 97.599125,14.2345 C102.198,9.635625 107.6735,7.372125 114.170125,7.372125 C120.6675,7.372125 126.14225,9.635625 130.7415,14.2345 C135.340375,18.833625 137.676375,24.296375 137.676375,30.768625 Z M65.078,54.2395 C58.604625,54.2395 53.142625,51.903 48.542375,47.303375 C43.944625,42.704625 41.681125,37.22975 41.681125,30.7325 C41.681125,24.2365 43.944625,18.760375 48.542375,14.161125 C53.142625,9.56225 58.604625,7.2995 65.078,7.2995 C71.550125,7.2995 77.013625,9.56225 81.6125,14.161125 C86.211625,18.760375 88.474375,24.2365 88.474375,30.7325 C88.474375,37.22975 86.211625,42.704625 81.6125,47.303375 C77.013625,51.903 71.550125,54.2395 65.078,54.2395 L65.078,54.2395 Z" id="path266"></path>
                <polygon id="path268" points="235.0575 40.529625 235.0575 14.515125 248.066 27.5225"></polygon>
            </g>
        </g>
    </g>
</svg>